<svg width="144" height="144" viewBox="0 0 144 144" fill="none" xmlns="http://www.w3.org/2000/svg">
<path fill-rule="evenodd" clip-rule="evenodd" d="M0 1C0 0.447715 0.447715 0 1 0H16H48H63C63.5523 0 64 0.447715 64 1V127C64 127.552 64.4477 128 65 128H95C95.5523 128 96 127.552 96 127V1C96 0.447715 96.4477 0 97 0H112H143C143.552 0 144 0.447715 144 1V15C144 15.5523 143.552 16 143 16L113 16C112.448 16 112 16.4477 112 17V63C112 63.5523 112.448 64 113 64H143C143.552 64 144 64.4477 144 65V79C144 79.5523 143.552 80 143 80H113C112.448 80 112 80.4477 112 81V143C112 143.552 111.552 144 111 144H96H64H49C48.4477 144 48 143.552 48 143V17C48 16.4477 47.5523 16 47 16L17 16C16.4477 16 16 16.4477 16 17L16 143C16 143.552 15.5523 144 15 144H1C0.447715 144 0 143.552 0 143V1Z" fill="url(#paint0_linear_2_13)"/>
<defs>
<linearGradient id="paint0_linear_2_13" x1="0.0977816" y1="-1.20002e-06" x2="143.902" y2="144" gradientUnits="userSpaceOnUse">
<stop stop-color="#40C1FF"/>
<stop offset="1" stop-color="#B52EFE"/>
</linearGradient>
</defs>
</svg>
